<?xml version="1.0" standalone="no"?>
<!DOCTYPE svg PUBLIC "-//W3C//DTD SVG 20010904//EN"
 "http://www.w3.org/TR/2001/REC-SVG-20010904/DTD/svg10.dtd">
<svg version="1.0" xmlns="http://www.w3.org/2000/svg"
 width="260.000000pt" height="260.000000pt" viewBox="0 0 260.000000 260.000000"
 preserveAspectRatio="xMidYMid meet">
<metadata>
Created by potrace 1.11, written by Peter Selinger 2001-2013
</metadata>
<g transform="translate(0.000000,260.000000) scale(0.100000,-0.100000)"
fill="#000000" stroke="none">
<path d="M0 1300 l0 -1300 1300 0 1300 0 0 1300 0 1300 -1300 0 -1300 0 0
-1300z m938 406 c57 -16 182 -71 182 -81 0 -10 -71 -135 -76 -135 -3 0 -17 9
-32 20 -71 52 -207 75 -276 46 -65 -27 -69 -119 -7 -151 15 -7 82 -29 151 -50
137 -40 173 -59 218 -110 41 -46 56 -96 49 -167 -16 -176 -194 -262 -438 -214
-81 17 -229 79 -229 97 0 5 15 37 33 72 17 34 32 63 33 64 0 2 29 -13 65 -31
135 -72 279 -87 334 -36 24 23 32 60 19 94 -10 27 -65 53 -179 86 -136 39
-212 79 -245 127 -22 32 -25 48 -25 117 0 70 4 87 28 128 15 26 42 58 60 72
78 59 223 81 335 52z m863 -15 c62 -23 134 -81 161 -129 l18 -30 -62 -46 -61
-46 -36 42 c-19 22 -58 51 -85 64 -133 62 -271 -6 -322 -158 -22 -68 -16 -187
14 -244 48 -93 154 -153 247 -141 96 14 195 86 195 144 l0 33 -85 0 -85 0 0
60 0 60 155 0 155 0 0 -220 0 -220 -70 0 -70 0 0 46 0 45 -32 -24 c-82 -61
-173 -84 -264 -68 -205 38 -343 212 -346 437 -3 191 133 366 322 414 57 15
188 5 251 -19z"/>
</g>
</svg>
