<?xml version="1.0" encoding="UTF-8" standalone="no"?>
<svg
   xmlns="http://www.w3.org/2000/svg"
   id="svg25"
   version="1.1"
   width="100"
   height="100"
   viewBox="0 0 35.22 33.539667">
  <g
     transform="matrix(0.2592159,0,0,0.26557123,3.8849713,3.182467)"
     id="Layer_1">
    <g
       id="g22"
       fill-rule="evenodd"
       clip-rule="evenodd"
       stroke-width="0.036"
       stroke="#c9c32c"
       stroke-miterlimit="10">
      <path
         id="path2"
         fill="#99941a"
         d="m 52.83,0.018 c 29.152,0 52.813,22.531 52.813,50.292 0,27.76 -23.66,50.292 -52.813,50.292 -29.153,0 -52.809,-22.53 -52.809,-50.29 0,-27.761 23.66,-50.292 52.812,-50.292" />
      <path
         id="path4"
         fill="#c9c32c"
         d="m 25.254,11.218 c -1.548,0.648 -2.664,1.332 -3.78,2.196 -1.116,0.756 -1.908,1.692 -2.664,2.664 -0.864,0.9 -1.584,1.872 -2.16,2.916 l 7.128,-1.836 c 0.468,-1.98 0.972,-3.96 1.476,-5.94 z" />
      <path
         id="path6"
         fill="#c9c32c"
         d="M 32.886,8.086 48.87,4.198 59.886,13.306 56.97,24.934 44.73,30.622 29.25,26.518 26.946,17.05 Z" />
      <path
         id="path8"
         fill="#c9c32c"
         d="M 63.342,14.026 61.399,25.042 73.53,37.174 86.49,35.23 90.486,20.686 76.302,9.058 Z" />
      <path
         id="path10"
         fill="#c9c32c"
         d="M 76.05,41.278 88.29,39.082 95.562,51.322 85.518,67.918 72.918,66.73 68.311,56.181 Z" />
      <path
         id="path12"
         fill="#c9c32c"
         d="M 94.482,75.91 88.65,69.142 98.838,51.933 102.366,49.99 c 0.036,4.176 -0.288,7.703 -0.972,11.268 -0.828,3.527 -2.053,6.732 -3.276,9.324 -1.229,2.447 -2.346,4.176 -3.642,5.328 z" />
      <path
         id="path14"
         fill="#c9c32c"
         d="M 33.894,63.418 48.33,52.762 64.566,57.01 69.75,69.215 60.786,80.986 40.554,76.738 Z" />
      <path
         id="path16"
         fill="#c9c32c"
         d="m 64.962,97.113 c -2.988,0.434 -6.012,0.756 -9.216,0.828 -3.312,0.072 -6.84,0 -10.044,-0.359 -3.42,-0.504 -6.588,-1.404 -9.36,-2.305 -2.772,-0.971 -4.896,-2.051 -6.768,-3.383 l -0.252,-4.861 9.576,-7.271 21.457,3.781 6.155,9.432 z" />
      <path
         id="path18"
         fill="#c9c32c"
         d="M 14.31,43.726 27.522,30.298 41.814,34.294 45.45,49.774 30.546,61.295 17.586,60.934 Z" />
      <path
         id="path20"
         fill="#c9c32c"
         d="M 9.45,71.123 C 8.298,71.59 7.218,70.365 6.066,67.846 4.806,65.11 3.114,59.602 2.538,55.498 1.998,51.357 2.034,47.326 2.79,43.258 l 7.524,2.412 3.996,16.705 z" />
    </g>
  </g>
</svg>
