<svg
   xmlns="http://www.w3.org/2000/svg"
   id="svg8"
   version="1.1"
   viewBox="0 0 26.458333 26.458333"
   height="100"
   width="100">
  <path
     d="M 20.37972,20.37972 17.369529,19.818515 16.569084,22.774101 14.100493,20.9624 12.096936,23.277991 10.658881,20.574623 7.8490412,21.791588 7.7263452,18.731989 4.6667459,18.609293 5.8837108,15.799454 3.1803431,14.361398 5.495934,12.357841 3.684233,9.8892502 6.639819,9.0888056 6.0786142,6.0786143 9.088805,6.6398193 9.8892501,3.6842331 l 2.4685909,1.811701 2.003556,-2.3155911 1.438056,2.7033676 2.80984,-1.2169647 0.122696,3.0595989 3.059599,0.1226964 -1.216965,2.8098388 2.703368,1.438056 -2.315591,2.003557 1.811701,2.468591 -2.955586,0.800444 z"
     id="path885"
     fill="#c9c32c"/>
  <circle
     r="6.9145317"
     cy="13.229167"
     cx="13.229167"
     id="path875"
     fill="#99941a" />
</svg>
