<?xml version="1.0" encoding="UTF-8" standalone="no"?>
<svg
   xmlns="http://www.w3.org/2000/svg"
   height="100"
   width="100"
   viewBox="0 0 99.999997 99.999997"
   y="0px"
   x="0px"
   id="Capa_1"
   version="1.1">
<g
   transform="matrix(0.77527301,0,0,0.77527301,10.020125,11.486683)"
   id="g10">
	<path
   id="path2"
   d="m 64.166,0.573 c -5.623,1.457 -10.469,10.634 -9.161,27.321 1.309,16.686 5.072,19.63 3.271,37.299 -1.799,17.668 -5.839,33.38 9.162,35.173 15.05,1.8 15.704,-5.562 19.304,-35.663 C 90.266,35.225 97.176,27.359 90.832,13.987 84.779,1.227 71.624,-1.359 64.166,0.573 Z"
   style="clip-rule:evenodd;fill:#c9c32c;fill-rule:evenodd" />
	<path
   id="path4"
   d="m 78.832,72.318 c -2.675,-2.299 1.244,-5.774 4.918,-9.955 3.479,-3.959 5.377,-7.768 5.159,-12.716 -0.202,-4.555 -6.958,-15.475 -11.876,-20.273 -4.918,-4.797 -6.598,-8.637 -13.675,1.2 -7.077,9.837 -9.716,16.435 -6.957,22.672 2.758,6.239 11.635,16.074 8.276,18.594 -3.358,2.52 -8.919,-6.938 -10.676,-18.714 -2.137,-14.33 3.385,-29.481 12.99,-34.36 3.544,-1.801 0.786,-5.197 3.385,-5.226 2.727,-0.027 0.962,4.424 2.426,4.946 7.634,2.734 18.416,20.306 18.265,29.481 -0.184,11.277 -7.402,28.508 -12.235,24.351 z"
   style="clip-rule:evenodd;fill:#99941a;fill-rule:evenodd" />
	<path
   id="path6"
   d="m 36.454,0.573 c 5.623,1.457 10.469,10.634 9.161,27.321 -1.309,16.686 -5.072,19.63 -3.271,37.299 1.799,17.668 5.839,33.38 -9.162,35.173 C 18.131,102.166 17.477,94.804 13.877,64.703 10.353,35.226 3.444,27.36 9.787,13.987 15.84,1.227 28.996,-1.359 36.454,0.573 Z"
   style="clip-rule:evenodd;fill:#c9c32c;fill-rule:evenodd" />
	<path
   id="path8"
   d="m 21.788,72.318 c 2.674,-2.299 -1.244,-5.774 -4.918,-9.955 -3.479,-3.959 -5.377,-7.768 -5.158,-12.716 0.202,-4.555 6.958,-15.475 11.875,-20.273 4.919,-4.797 6.599,-8.637 13.676,1.2 7.077,9.837 9.716,16.435 6.957,22.672 -2.759,6.239 -11.635,16.074 -8.277,18.594 3.358,2.52 8.92,-6.938 10.676,-18.714 2.137,-14.33 -3.385,-29.481 -12.99,-34.36 -3.545,-1.801 -0.787,-5.197 -3.386,-5.226 -2.727,-0.027 -0.962,4.424 -2.426,4.946 C 20.182,21.22 9.402,38.791 9.552,47.967 9.738,59.244 16.954,76.475 21.788,72.318 Z"
   style="clip-rule:evenodd;fill:#99941a;fill-rule:evenodd" />
</g>
</svg>
