<?xml version="1.0" encoding="UTF-8" standalone="no"?>
<svg
   xmlns="http://www.w3.org/2000/svg"
   version="1.1"
   width="100"
   viewBox="0 0 21.484375 21.484375"
   height="100"
   enable-background="new 0 0 110 110"
   id="Layer_1">
  <path
     style="stroke-width:0.183353"
     id="path2"
     fill="#99941a"
     d="m 7.6465354,12.912096 -3.524363,3.524364 c -0.1812878,0.181288 -0.181315,0.475258 0,0.656573 l 0.6562723,0.656273 c 0.1812878,0.181288 0.4752712,0.181273 0.6565589,-1.4e-5 l 3.5243639,-3.524364 z" />
  <path
     style="stroke-width:0.183353"
     id="path4"
     fill="#c9c32c"
     d="M 17.57079,9.1688785 C 18.051681,8.6371838 18.031214,7.8218946 17.52432,7.3150005 L 14.556449,4.3471327 C 14.049555,3.8402377 13.234279,3.819785 12.702585,4.3006779 L 5.8917192,10.460714 c -0.5707557,0.516204 -0.5930681,1.405088 -0.048921,1.949238 l 3.6186987,3.618699 c 0.5441639,0.544164 1.4330479,0.521853 1.9492519,-0.0489 z" />
  <g
     transform="matrix(0.1833536,0,0,0.1833536,0.86785023,0.83471367)"
     id="g10"
     fill="#99941a">
    <path
       id="path6"
       d="m 71.674927,31.224516 -4.132675,-4.132677 c -0.684052,-0.684046 -1.918625,-0.55856 -2.75734,0.280149 L 37.123669,55.033237 c -0.839009,0.839005 -0.964497,2.073586 -0.280449,2.75763 l 4.132675,4.132679 c 0.684048,0.684048 1.918568,0.558498 2.757572,-0.28051 L 71.394714,33.981789 c 0.838707,-0.838707 0.964257,-2.073225 0.280213,-2.757273 z" />
    <path
       id="path8"
       d="m 82.908256,42.457844 -4.132682,-4.132675 c -0.684044,-0.684048 -1.918625,-0.55856 -2.757332,0.280147 L 48.356995,66.266563 c -0.839005,0.839005 -0.964493,2.073586 -0.280446,2.75763 l 4.132676,4.132683 c 0.684047,0.684043 1.918563,0.558494 2.757572,-0.28051 L 82.628044,45.215118 c 0.838707,-0.83871 0.964256,-2.073227 0.280212,-2.757274 z" />
  </g>
</svg>
