<svg version="1.1"
	 xmlns="http://www.w3.org/2000/svg" x="0px" y="0px" width="432px" height="432px"
	 viewBox="0 0 432 432">
		<path
      fill="rgba(0, 0, 0, 0.03)"
      d="M364.004,318.068l35.257,3.734l-20.865-28.663l-24.619-2.612l-3.327-1.919l18.34-4.913c2.313-0.619,3.688-3,3.069-5.317
			c-0.618-2.318-3.003-3.693-5.32-3.075l-26.729,7.161l-32.957-19.027l7.225-1.937l23.961,13.837
			c2.078,1.202,4.733,0.491,5.934-1.583c1.202-2.081,0.488-4.734-1.59-5.937l-16.444-9.49l3.717-0.994l24.455,3.85l27.57-22.288
			l-35.023-5.52l-19.25,15.565l-3.714,0.994l9.493-16.444c1.199-2.074,0.488-4.728-1.589-5.924
			c-2.075-1.202-4.734-0.491-5.934,1.583l-13.834,23.964l-15.611,4.185l-64.008-36.951l32.818-0.006l19.565,19.565
			c1.699,1.699,4.445,1.699,6.145,0c1.699-1.693,1.696-4.444,0-6.139l-13.421-13.427h3.838l22.625,10.052L336.185,216
			l-32.405-14.394l-22.625,10.051h-3.838l13.421-13.425c1.696-1.696,1.699-4.446,0-6.14c-1.699-1.698-4.445-1.698-6.145-0.001
			l-19.565,19.566h-32.818l64.008-36.956l15.611,4.184l13.834,23.962c1.199,2.077,3.853,2.789,5.934,1.588
			c2.077-1.198,2.788-3.854,1.589-5.931l-9.493-16.439l3.714,0.994l19.25,15.564l35.023-5.517l-27.57-22.289l-24.455,3.851
			l-3.717-0.994l16.444-9.494c2.078-1.199,2.786-3.856,1.59-5.933c-1.2-2.077-3.855-2.789-5.934-1.588l-23.961,13.834l-7.225-1.935
			l32.957-19.027l26.729,7.161c2.317,0.622,4.702-0.754,5.32-3.072c0.618-2.315-0.757-4.696-3.069-5.316l-18.343-4.916l3.33-1.92
			l24.619-2.608l20.865-28.666l-35.257,3.734l-14.571,20.016l-3.329,1.922l4.912-18.338c0.625-2.315-0.751-4.695-3.068-5.316
			c-2.318-0.623-4.699,0.753-5.318,3.071l-7.161,26.725l-32.957,19.029l1.937-7.222l23.963-13.833
			c2.075-1.201,2.789-3.857,1.59-5.936c-1.202-2.077-3.855-2.789-5.936-1.588l-16.438,9.492l0.994-3.709l15.565-19.253l-5.52-35.025
			l-22.291,27.573l3.853,24.457l-0.994,3.711l-9.49-16.441c-1.196-2.079-3.855-2.789-5.931-1.591
			c-2.081,1.201-2.792,3.856-1.592,5.935l13.834,23.961l-4.185,15.611l-64.002,36.954l16.41-28.421l26.726-7.162
			c2.313-0.621,3.688-3.001,3.069-5.319s-3-3.693-5.317-3.07l-18.34,4.911l1.922-3.323l20.019-14.571l3.734-35.257l-28.666,20.864
			l-2.609,24.621l-1.919,3.325l-4.913-18.338c-0.618-2.315-3.003-3.692-5.317-3.068c-2.32,0.62-3.693,3.001-3.075,5.318
			l7.161,26.728l-16.412,28.426v-73.912l11.434-11.43h27.671c2.396,0,4.341-1.943,4.341-4.342c0-2.397-1.945-4.343-4.341-4.343
			h-18.987l2.717-2.715l23.105-8.891l12.736-33.091l-33.091,12.734l-8.895,23.107l-2.717,2.715V80.64
			c0-2.397-1.942-4.342-4.341-4.342s-4.344,1.945-4.344,4.342v27.671l-5.289,5.287V75.542l19.568-19.563
			c1.696-1.698,1.696-4.448,0-6.141c-1.699-1.698-4.444-1.698-6.142,0L220.34,63.26v-3.841l10.055-22.627L215.998,4.39
			l-14.395,32.402l10.051,22.624v3.844l-13.422-13.422c-1.696-1.698-4.446-1.698-6.141,0c-1.698,1.693-1.696,4.443,0,6.141
			l19.563,19.563v38.057l-5.284-5.287V80.64c0-2.397-1.943-4.342-4.345-4.342c-2.397,0-4.339,1.945-4.339,4.342v18.986l-2.718-2.715
			l-8.893-23.107l-33.089-12.734l12.733,33.091l23.107,8.891l2.715,2.715h-18.985c-2.397,0-4.341,1.946-4.341,4.343
			c0,2.399,1.943,4.342,4.342,4.342h27.668l11.428,11.43v73.906l-16.408-28.42l7.162-26.728c0.62-2.316-0.753-4.698-3.072-5.318
			c-2.316-0.623-4.698,0.753-5.317,3.068l-4.913,18.338l-1.922-3.327l-2.608-24.62L155.91,111.92l3.735,35.257l20.016,14.571
			l1.922,3.323l-18.338-4.911c-2.315-0.623-4.698,0.752-5.319,3.07c-0.62,2.318,0.755,4.698,3.072,5.319l26.727,7.162l16.412,28.426
			l-64.011-36.956l-4.184-15.614l13.837-23.962c1.198-2.077,0.488-4.732-1.591-5.933c-2.078-1.198-4.731-0.488-5.932,1.591
			l-9.492,16.441l-0.994-3.711l3.854-24.457l-22.292-27.573l-5.517,35.025l15.564,19.253l0.994,3.709l-16.439-9.492
			c-2.077-1.201-4.734-0.488-5.935,1.591c-1.2,2.076-0.484,4.732,1.592,5.933l23.96,13.833l1.937,7.222l-32.957-19.026
			l-7.162-26.728c-0.621-2.318-3.002-3.693-5.319-3.071c-2.316,0.622-3.69,3.001-3.071,5.319l4.915,18.335l-3.329-1.919
			L67.997,113.93l-35.258-3.734l20.864,28.667l24.62,2.608l3.326,1.919l-18.338,4.916c-2.314,0.62-3.69,3.001-3.07,5.319
			c0.62,2.314,3.002,3.69,5.32,3.069l26.728-7.161l32.957,19.027l-7.223,1.938l-23.964-13.837c-2.077-1.201-4.731-0.488-5.932,1.591
			c-1.199,2.077-0.487,4.731,1.589,5.932l16.441,9.492l-3.708,0.994l-24.458-3.851L50.32,193.107l35.023,5.517l19.252-15.564
			l3.71-0.994l-9.492,16.439c-1.199,2.077-0.488,4.734,1.589,5.933c2.077,1.198,4.732,0.486,5.934-1.591l13.834-23.962l15.612-4.182
			l64.008,36.951h-32.82l-19.566-19.563c-1.695-1.696-4.445-1.696-6.141,0c-1.698,1.698-1.698,4.445,0,6.141l13.424,13.422h-3.842
			l-22.625-10.048L95.819,216l32.401,14.392l22.625-10.046h3.844l-13.425,13.421c-1.698,1.694-1.698,4.445,0,6.139
			c1.696,1.699,4.446,1.699,6.141,0l19.566-19.56l32.82-0.006l-64.005,36.957l-15.615-4.185l-13.834-23.964
			c-1.201-2.074-3.857-2.785-5.934-1.583c-2.078,1.196-2.789,3.85-1.589,5.924l9.492,16.444l-3.71-0.994l-19.252-15.565
			l-35.023,5.52l27.572,22.288l24.455-3.85l3.712,0.994l-16.442,9.49c-2.076,1.202-2.789,3.855-1.589,5.937
			c1.201,2.074,3.855,2.785,5.932,1.583l23.965-13.837l7.222,1.942L92.189,282.47l-26.728-7.167
			c-2.318-0.618-4.698,0.757-5.32,3.075c-0.62,2.317,0.756,4.698,3.07,5.317l18.338,4.913l-3.326,1.925l-24.62,2.606l-20.864,28.663
			l35.258-3.734l14.568-20.016l3.329-1.919l-4.915,18.34c-0.62,2.312,0.754,4.693,3.071,5.317c2.316,0.618,4.698-0.758,5.319-3.075
			l7.162-26.727l32.957-19.027l-1.937,7.225l-23.96,13.832c-2.077,1.202-2.792,3.854-1.591,5.936
			c1.199,2.075,3.856,2.786,5.933,1.59l16.439-9.497l-0.994,3.711l-15.564,19.253l5.517,35.026l22.292-27.57l-3.854-24.46
			l0.994-3.711l9.492,16.443c1.201,2.075,3.855,2.786,5.932,1.59c2.079-1.196,2.789-3.855,1.591-5.931l-13.837-23.963l4.184-15.612
			l64.011-36.956l-16.412,28.42l-26.727,7.167c-2.316,0.618-3.692,2.999-3.072,5.317c0.621,2.317,3.004,3.693,5.319,3.069
			l18.338-4.913l-1.922,3.323l-20.016,14.571l-3.735,35.264l28.666-20.866l2.608-24.622l1.922-3.329l4.913,18.34
			c0.62,2.317,3.001,3.693,5.317,3.068c2.319-0.618,3.692-2.999,3.072-5.317l-7.162-26.727l16.411-28.426v73.908l-11.431,11.433
			h-27.668c-2.399,0-4.342,1.942-4.342,4.341c0,2.399,1.943,4.347,4.341,4.347h18.985l-2.715,2.711l-23.107,8.896l-12.733,33.09
			l33.089-12.733l8.893-23.107l2.718-2.717v18.987c0,2.393,1.942,4.34,4.339,4.34c2.402,0,4.345-1.947,4.345-4.34v-27.669
			l5.287-5.295v38.062l-19.566,19.564c-1.696,1.694-1.696,4.445,0,6.145c1.698,1.693,4.445,1.693,6.141,0l13.425-13.427v3.844
			l-10.054,22.622L216,427.609l14.395-32.402l-10.052-22.622v-3.844l13.424,13.427c1.697,1.693,4.442,1.693,6.142,0
			c1.696-1.699,1.696-4.45,0-6.145l-19.565-19.564v-38.062l5.286,5.295v27.669c0,2.393,1.945,4.34,4.344,4.34
			s4.344-1.947,4.341-4.34v-18.987l2.717,2.717l8.895,23.107l33.091,12.733l-12.736-33.09l-23.105-8.896l-2.717-2.711h18.987
			c2.393,0,4.341-1.947,4.341-4.347c0-2.398-1.945-4.341-4.341-4.341h-27.671l-11.431-11.433v-73.908l16.409,28.426l-7.161,26.727
			c-0.618,2.318,0.755,4.699,3.072,5.317c2.317,0.625,4.702-0.751,5.32-3.068l4.913-18.334l1.919,3.323l2.609,24.622l28.666,20.866
			l-3.734-35.264l-20.019-14.571l-1.922-3.323l18.34,4.913c2.317,0.624,4.699-0.752,5.317-3.069
			c0.618-2.318-0.757-4.699-3.069-5.317l-26.726-7.167l-16.41-28.42l64.002,36.951l4.185,15.617l-13.834,23.963
			c-1.2,2.075-0.489,4.734,1.592,5.931c2.075,1.196,4.734,0.485,5.931-1.59l9.49-16.443l0.994,3.711l-3.853,24.46l22.291,27.57
			l5.52-35.026l-15.565-19.253l-0.994-3.711l16.438,9.497c2.08,1.196,4.733,0.485,5.936-1.59c1.199-2.081,0.485-4.733-1.59-5.936
			l-23.963-13.832l-1.937-7.225l32.957,19.027l7.161,26.727c0.619,2.317,3,3.693,5.318,3.069c2.317-0.618,3.693-3,3.071-5.312
			l-4.91-18.34l3.324,1.919L364.004,318.068z"/>
</svg>
