<svg
   xmlns="http://www.w3.org/2000/svg"
   version="1.1"
   viewBox="0 0 26.458334 26.458334"
   height="100"
   width="100">
  <path
     d="M 9.206485,4.9646832 C 9.111973,4.8250351 8.993909,4.3699835 9.704354,4.3699835 c 0.861513,0 6.35902,-0.015711 6.939002,-0.018874 0.330612,0.051096 0.603495,0.2448665 0.209161,0.7626196 -0.004,0.5481969 0.693955,1.368107 0.921765,2.0643524 0,0.7503155 -0.0041,11.9480801 0.0031,12.9017821 -0.03944,0.126948 -0.312141,0.218907 -0.570136,0.313072 -0.0291,0.281912 0.164648,0.647392 -0.274157,0.775665 -0.613188,0.252347 -1.231552,0.429677 -1.949826,0.520818 -1.247329,0.11951 -2.501789,0.191528 -3.76033,-0.0029 C 10.44423,21.655225 9.7564474,21.425801 9.1232898,21.24274 8.8861697,21.23427 8.9434283,20.686699 8.9646633,20.430114 8.6463248,20.347122 8.3689621,20.288132 8.2879194,20.130767 c 0,-0.832384 -0.0177,-11.9612515 -0.0177,-12.8425279 0.3875014,-1.1237604 1.082085,-1.8749509 0.9362732,-2.3235313 z"
     fill="#c9c32c" />
   
</svg>
