<?xml version="1.0" encoding="UTF-8" standalone="no"?>
<svg
   xmlns="http://www.w3.org/2000/svg"
   width="200"
   height="200"
   viewBox="0 0 52.916668 52.916668"
   version="1.1">
  <path
     d="M 0.40111168,17.87847 C 8.5076376,17.210896 16.506308,16.902863 23.657048,19.421247 c 1.84409,0.537086 3.6348,0.540353 5.37115,0 7.84255,-2.39197 15.76329,-2.360008 23.71305,-1.428498 l 0.0571,3.028414 c -1.04332,0.656057 -2.22984,1.02573 -2.34273,3.542674 -0.34536,3.077153 -0.72321,6.112941 -2.22845,7.713885 -4.38686,3.224839 -11.66579,3.240924 -15.41866,-0.123594 -1.86664,-1.753334 -1.82191,-1.933234 -3.89462,-6.390355 -1.65661,-3.720161 -3.25082,-3.387721 -4.79975,0 -1.01609,2.293623 -1.3866,4.531111 -4.74261,7.028206 -4.31887,2.574323 -12.3906664,2.45964 -15.1992154,-1.371355 -1.205697,-1.436594 -1.177631,-4.635708 -1.714196,-7.028207 -0.128131,-1.854608 -0.973509,-2.73115 -2.28559492,-2.971275 z"
     fill="#c9c32c"
     />
  <path
     d="m 8.6884006,18.838749 c -3.235906,-0.08368 -4.341969,1.566757 -4.622792,4.135073 -0.264026,1.378353 -0.465144,2.995722 0.46118,6.531584 1.171789,2.728157 2.696947,3.265436 4.242419,3.676763 5.8698704,0.970663 7.7645504,-0.0088 9.6969604,-0.969694 2.79956,-2.1748 3.95453,-4.863534 4.32323,-7.797974 0.0747,-2.240301 -0.0178,-4.400339 -3.67676,-4.84848 -4.79333,-0.901718 -7.552754,-0.786477 -10.4242374,-0.727272 z"
     fill="#99941a" />
  <path
     d="m 44.426268,18.873803 c 3.23591,-0.08368 4.34196,1.566756 4.62279,4.135073 0.26403,1.378352 0.46515,2.995721 -0.46118,6.531585 -1.17179,2.728156 -2.69694,3.265435 -4.24242,3.676762 -5.86987,0.970662 -7.76455,-0.0088 -9.69696,-0.969694 -2.79955,-2.174799 -3.95452,-4.863534 -4.32323,-7.797972 -0.0747,-2.240304 0.0178,-4.400339 3.67677,-4.84848 4.79334,-0.901722 7.55275,-0.786479 10.42423,-0.727274 z"
     fill="#99941a" />
</svg>
